<?xml version="1.0" encoding="utf-8"?>
<!-- Generator: Adobe Illustrator 18.0.0, SVG Export Plug-In . SVG Version: 6.00 Build 0)  -->
<!DOCTYPE svg PUBLIC "-//W3C//DTD SVG 1.1//EN" "http://www.w3.org/Graphics/SVG/1.1/DTD/svg11.dtd">
<svg version="1.1" id="Layer_1" xmlns="http://www.w3.org/2000/svg" xmlns:xlink="http://www.w3.org/1999/xlink" x="0px" y="0px"
	 viewBox="0 0 100 100" enable-background="new 0 0 100 100" xml:space="preserve">
<g id="Note_2_">
	<g>
		<path fill-rule="evenodd" clip-rule="evenodd" fill="#16AC92" d="M68.1,78.5h-46v-50h28.1l4-3.9l-0.1-0.1h-32c-2.2,0-4,1.8-4,4v50
			c0,2.2,1.8,4,4,4h46c2.2,0,4-1.8,4-4V49.2l-4,3.8V78.5z M79,21.1c-1.8-1.7-3.8-2.6-5.9-2.6c-3.3,0-5.8,2.1-6.4,2.8
			c-0.9,0.9-27.4,27.4-27.4,27.4c-0.2,0.2-0.4,0.5-0.4,0.8c-0.7,2.7-4.3,14.4-4.4,14.6c-0.2,0.6,0,1.3,0.4,1.7
			c0.3,0.3,0.7,0.5,1.2,0.5c0.2,0,0.3,0,0.5-0.1c0.1,0,12.3-4,14.3-4.6c0.3-0.1,0.5-0.2,0.7-0.4c1.3-1.2,25.6-25.2,27.6-27.3
			c2-2.1,3.1-4.3,3-6.5C82.1,25.2,81,23.1,79,21.1z M76.3,31.1c-1.1,1.1-9.8,9.8-25.9,25.6l-1.2,1.2c-1.8,0.6-6.3,2-9.6,3.1
			c1.1-3.5,2.4-7.8,2.9-9.9c3.4-3.4,26.1-26.1,27-27c0.2-0.2,1.7-1.6,3.6-1.6c1.1,0,2.1,0.5,3.2,1.5c1.3,1.2,1.9,2.4,1.9,3.4
			C78.2,28.5,77.5,29.8,76.3,31.1z"/>
	</g>
</g>
</svg>
