<?xml version="1.0" encoding="utf-8"?>
<!-- Generator: Adobe Illustrator 18.0.0, SVG Export Plug-In . SVG Version: 6.00 Build 0)  -->
<!DOCTYPE svg PUBLIC "-//W3C//DTD SVG 1.1//EN" "http://www.w3.org/Graphics/SVG/1.1/DTD/svg11.dtd">
<svg version="1.1" id="Layer_1" xmlns="http://www.w3.org/2000/svg" xmlns:xlink="http://www.w3.org/1999/xlink" x="0px" y="0px"
	 viewBox="0 0 300 410.6" enable-background="new 0 0 300 410.6" xml:space="preserve">
<path fill="#E0D62E" d="M158,195.9c-24-1.4-43-21.3-43-45.6c0-24.3,19-44.2,43-45.6V75.1c-40,1.2-73,34.4-73,75.2s33,74,73,75.2
	V195.9z"/>
<line fill="none" stroke="#15685A" stroke-miterlimit="10" x1="133" y1="309.5" x2="165" y2="309.5"/>
<circle fill="#15685A" cx="164.4" cy="309.3" r="1.3"/>
<circle fill="#15685A" cx="111.9" cy="378.6" r="1.3"/>
<circle fill="#15685A" cx="123.1" cy="341.7" r="1.3"/>
<text transform="matrix(1 0 0 1 173.2322 313.3963)" fill="#15685A" font-family="'MotivaSans-Regular'" font-size="13.4094">Mobile Design</text>
<text transform="matrix(1 0 0 1 130.167 345.2215)" fill="#15685A" font-family="'MotivaSans-Regular'" font-size="13.4094">Copy Writing</text>
<text transform="matrix(1 0 0 1 120.5584 382.6638)" fill="#15685A" font-family="'MotivaSans-Regular'" font-size="13.4094">Web Development</text>
<line fill="none" stroke="#15685A" stroke-miterlimit="10" x1="88" y1="341.5" x2="123" y2="341.5"/>
<line fill="none" stroke="#15685A" stroke-miterlimit="10" x1="43" y1="378.5" x2="111" y2="378.5"/>
<path fill="#E78024" d="M238.6,212c-17.6,23.2-44.9,38.6-76.1,40.1c-56,2.7-103.6-40.6-106.3-96.6c-2.7-56,40.6-103.6,96.7-106.3
	c36.2-1.7,68.8,15.6,88.1,43.4l23.3-16.7c-24.8-35.3-66.5-57.5-112.8-55.3C79.6,24,24.1,85,27.5,156.8s64.4,127.3,136.2,123.9
	c39.7-1.9,74.4-21.3,96.9-50.5L238.6,212z"/>
<path fill="#2B82B9" d="M160.1,225.1c-41.3,0-74.8-33.5-74.8-74.8s33.5-74.8,74.8-74.8c0.6,0,0.9,0,1.9,0V48.4c-1,0-2.7-0.1-4-0.1
	c-56.3,0-102,45.7-102,102s45.8,102,102.1,102c1.3,0,2.9,0,3.9-0.1v-27.1C161,225.1,160.7,225.1,160.1,225.1z"/>
<line fill="none" stroke="#15685A" stroke-miterlimit="10" x1="43.5" y1="212" x2="43.5" y2="378"/>
<line fill="none" stroke="#15685A" stroke-miterlimit="10" x1="87.5" y1="224" x2="87.5" y2="342"/>
<line fill="none" stroke="#15685A" stroke-miterlimit="10" x1="133.5" y1="220" x2="133.5" y2="310"/>
<text transform="matrix(1 0 0 1 134.9686 38.713)" fill="#FFFFFF" font-family="'MotivaSans-Regular'" font-size="12">Top 80%</text>
<text transform="matrix(1 0 0 1 111.7806 68.9951)" fill="#FFFFFF" font-family="'MotivaSans-Regular'" font-size="12">Top 50%</text>
<text transform="matrix(1 0 0 1 106.5926 102.3711)" fill="#FFFFFF" font-family="'MotivaSans-Regular'" font-size="12">Top 48%</text>
</svg>
