<?xml version="1.0" encoding="utf-8"?>
<!-- Generator: Adobe Illustrator 18.0.0, SVG Export Plug-In . SVG Version: 6.00 Build 0)  -->
<!DOCTYPE svg PUBLIC "-//W3C//DTD SVG 1.1//EN" "http://www.w3.org/Graphics/SVG/1.1/DTD/svg11.dtd">
<svg version="1.1" id="Layer_1" xmlns="http://www.w3.org/2000/svg" xmlns:xlink="http://www.w3.org/1999/xlink" x="0px" y="0px"
	 viewBox="0 0 50 50" enable-background="new 0 0 50 50" xml:space="preserve">
<g>
	<path fill="#16AC92" d="M6.2,18C6.4,17,6.6,16,6.9,15c0.6-2.6,1.9-4.9,3.6-7.1c2.8-3.5,6.5-5.6,10.8-6.5c3-0.6,6-0.5,8.9,0.4
		c7,2.1,11.5,6.9,13.2,13.9C44.5,20,44,24.4,42,28.4c-1.8,3.6-4.5,6.4-8.2,8.2c-0.9,0.4-1.4,1.1-1.9,1.9c-1.3,2.4-2.6,4.7-3.9,7.1
		c-0.5,0.8-0.9,1.6-1.4,2.4c-0.7,1.1-2.4,1.1-3,0c-1.2-1.9-2.3-3.9-3.4-5.9c-0.8-1.4-1.5-3-2.5-4.3c-0.5-0.7-1.3-1.1-2.1-1.6
		c-4.6-2.6-7.5-6.6-8.9-11.6c-0.3-0.9-0.4-1.9-0.6-2.8C6.2,20.6,6.2,19.3,6.2,18z M25,43.4c0.1-0.1,0.2-0.1,0.2-0.2
		c1.3-2.4,2.7-4.7,3.9-7.1c0.6-1.1,1.4-2,2.6-2.5c2.3-1,4.1-2.6,5.5-4.5c2.7-3.6,3.6-7.7,2.8-12.1c-0.7-3.6-2.5-6.6-5.4-8.9
		C31.2,5.3,27.3,4.2,23,4.7C19.2,5.3,15.9,7,13.4,10c-3.1,3.8-4.3,8-3.4,12.8c1.1,5.3,4.3,8.9,9.1,11.2c0.5,0.2,1,0.6,1.2,1
		C21.9,37.8,23.5,40.6,25,43.4z"/>
	<path fill="#16AC92" d="M32.2,19.8c0.1,3.9-3.1,7.3-7.3,7.2c-4-0.1-7.1-3.2-7.1-7.2c0-4,3.1-7.3,7.5-7.2
		C29,12.7,32.3,15.8,32.2,19.8z M25,16.2c-1.9,0-3.6,1.8-3.6,3.6c0,1.9,1.7,3.7,3.7,3.6c1.9-0.1,3.5-1.5,3.6-3.6
		C28.7,17.8,27,16.2,25,16.2z"/>
</g>
</svg>
