<?xml version="1.0" encoding="utf-8"?>
<!-- Generator: Adobe Illustrator 18.0.0, SVG Export Plug-In . SVG Version: 6.00 Build 0)  -->
<!DOCTYPE svg PUBLIC "-//W3C//DTD SVG 1.1//EN" "http://www.w3.org/Graphics/SVG/1.1/DTD/svg11.dtd">
<svg version="1.1" id="Layer_1" xmlns="http://www.w3.org/2000/svg" xmlns:xlink="http://www.w3.org/1999/xlink" x="0px" y="0px"
	 viewBox="0 0 100 100" enable-background="new 0 0 100 100" xml:space="preserve">
<g id="Eye_2_">
	<g>
		<path fill-rule="evenodd" clip-rule="evenodd" fill="#16AC92" d="M49.9,36.3c-7.9,0-14.3,6.4-14.3,14.3c0,7.9,6.4,14.3,14.3,14.3
			c7.9,0,14.3-6.4,14.3-14.3C64.2,42.7,57.8,36.3,49.9,36.3z M49.9,60.2c-5.3,0-9.7-4.4-9.7-9.7c0-5.3,4.3-9.6,9.6-9.6
			c5.3,0,9.6,4.3,9.6,9.6C59.4,55.8,55.2,60.2,49.9,60.2z M87.8,50c0-0.1,0-0.2-0.1-0.4c0-0.1,0-0.1-0.1-0.1c0-0.1,0-0.1-0.1-0.2
			c-6.9-15.9-21.9-25.1-37.9-25.1c-16,0-31.2,9.1-38.2,25c0,0.1,0,0.1,0,0.2c0,0-0.1,0.1-0.1,0.1c0,0.1,0,0.2,0,0.4
			c0,0.2-0.1,0.4-0.1,0.6c0,0.2,0,0.4,0.1,0.6c0,0.1,0,0.3,0,0.4c0,0.1,0.1,0.1,0.1,0.1c0,0.1,0,0.1,0,0.2
			c6.9,15.9,22.1,24.9,38,24.9c16,0,31.1-9,38-24.9c0-0.1,0-0.1,0.1-0.2c0,0,0-0.1,0.1-0.1c0-0.1,0-0.2,0.1-0.4
			c0-0.2,0.1-0.4,0.1-0.6C87.9,50.4,87.9,50.2,87.8,50z M49.7,72c-13.5,0-26.8-7.1-33.4-21.5C22.8,36.3,36.2,29,49.8,29
			c13.6,0,26.8,7.3,33.2,21.6C76.6,64.9,63.2,72,49.7,72z"/>
	</g>
</g>
</svg>
