<?xml version="1.0" encoding="utf-8"?>
<!-- Generator: Adobe Illustrator 16.0.0, SVG Export Plug-In . SVG Version: 6.00 Build 0)  -->
<!DOCTYPE svg PUBLIC "-//W3C//DTD SVG 1.1//EN" "http://www.w3.org/Graphics/SVG/1.1/DTD/svg11.dtd">
<svg version="1.1" id="Layer_1" xmlns="http://www.w3.org/2000/svg" xmlns:xlink="http://www.w3.org/1999/xlink" x="0px" y="0px"
	 width="30px" height="30px" viewBox="0 0 30 30" enable-background="new 0 0 30 30" xml:space="preserve">
<g id="Male_User_55_">
	<g>
		<path fill="#FFFFFF" d="M28.107,23.424l-8.152-3.866c2.595-2.043,3.473-6.056,3.473-8.303V6.573c0-3.1-4.292-6.552-8.427-6.552
			c-4.137,0-8.436,3.453-8.436,6.552v4.683c0,2.044,0.934,6.183,3.554,8.287l-8.227,3.882c0,0-1.872,0.833-1.872,1.873v2.811
			c0,1.035,0.838,1.873,1.872,1.873h26.215c1.035,0,1.872-0.838,1.872-1.873v-2.811C29.979,24.196,28.107,23.424,28.107,23.424z"/>
	</g>
</g>
</svg>
