<?xml version="1.0" encoding="utf-8"?>
<!-- Generator: Adobe Illustrator 16.0.0, SVG Export Plug-In . SVG Version: 6.00 Build 0)  -->
<!DOCTYPE svg PUBLIC "-//W3C//DTD SVG 1.1//EN" "http://www.w3.org/Graphics/SVG/1.1/DTD/svg11.dtd">
<svg version="1.1" id="Layer_1" xmlns="http://www.w3.org/2000/svg" xmlns:xlink="http://www.w3.org/1999/xlink" x="0px" y="0px"
	 width="30px" height="30px" viewBox="0 0 30 30" enable-background="new 0 0 30 30" xml:space="preserve">
<g id="Home">
	<g>
		<path fill="#FFFFFF" d="M29.717,15.041L15.71,0.367c-0.176-0.183-0.419-0.287-0.673-0.287s-0.497,0.104-0.673,0.287L0.282,15.041
			c-0.356,0.372-0.344,0.962,0.028,1.319c0.372,0.356,0.962,0.347,1.319-0.027l1.254-1.307v13.962c0,0.516,0.418,0.933,0.934,0.933
			h6.519c0.514,0,0.932-0.416,0.934-0.93l0.029-9.322h7.436v9.319c0,0.516,0.417,0.933,0.933,0.933h6.517
			c0.516,0,0.933-0.417,0.933-0.933V15.021l1.253,1.313c0.184,0.19,0.429,0.287,0.674,0.287c0.232,0,0.465-0.086,0.646-0.261
			C30.062,16.004,30.074,15.412,29.717,15.041z M25.25,13.333v14.722H20.6v-9.319c0-0.516-0.417-0.934-0.933-0.934h-9.299
			c-0.514,0-0.932,0.416-0.933,0.931l-0.03,9.322H4.75V13.333c0-0.074-0.026-0.139-0.042-0.208L15.037,2.362l10.258,10.75
			C25.277,13.184,25.25,13.254,25.25,13.333z"/>
	</g>
</g>
</svg>
