<?xml version="1.0" encoding="utf-8"?>
<!-- Generator: Adobe Illustrator 16.0.0, SVG Export Plug-In . SVG Version: 6.00 Build 0)  -->
<!DOCTYPE svg PUBLIC "-//W3C//DTD SVG 1.1//EN" "http://www.w3.org/Graphics/SVG/1.1/DTD/svg11.dtd">
<svg version="1.1" id="Layer_1" xmlns="http://www.w3.org/2000/svg" xmlns:xlink="http://www.w3.org/1999/xlink" x="0px" y="0px"
	 width="30px" height="30px" viewBox="0 0 30 30" enable-background="new 0 0 30 30" xml:space="preserve">
<g id="Magnifier_8_">
	<g>
		<g>
			<path fill="#1B6555" d="M27.752,26.665l-7.889-7.938c1.471-1.76,2.357-4.025,2.357-6.498c0-5.605-4.543-10.148-10.147-10.148
				c-5.605,0-10.148,4.542-10.148,10.148c0,5.604,4.543,10.147,10.148,10.147c2.546,0,4.867-0.944,6.649-2.494l7.882,7.931
				c0.317,0.317,0.831,0.317,1.148,0C28.069,27.497,28.069,26.982,27.752,26.665z M12.073,20.766c-4.715,0-8.539-3.822-8.539-8.537
				c0-4.716,3.823-8.538,8.539-8.538c4.715,0,8.538,3.822,8.538,8.538C20.611,16.944,16.788,20.766,12.073,20.766z"/>
			<path fill="#1B6555" d="M27.178,29.973c-0.731,0-1.417-0.285-1.934-0.802l-6.713-6.755c-1.924,1.223-4.162,1.882-6.458,1.882
				c-6.656,0-12.07-5.414-12.07-12.069c0-6.656,5.415-12.07,12.07-12.07c6.655,0,12.069,5.415,12.069,12.07
				c0,2.228-0.621,4.409-1.773,6.293l6.746,6.788c0.512,0.512,0.797,1.199,0.797,1.93c0,0.731-0.285,1.417-0.803,1.934
				C28.595,29.688,27.909,29.973,27.178,29.973z M12.073,5.614c-3.648,0-6.616,2.967-6.616,6.615c0,3.647,2.968,6.615,6.616,6.615
				c3.647,0,6.615-2.968,6.615-6.615C18.688,8.581,15.721,5.614,12.073,5.614z"/>
		</g>
	</g>
	<g>
		<g>
			<path fill="#1B6555" d="M27.752,26.665l-7.889-7.938c1.471-1.76,2.357-4.025,2.357-6.498c0-5.605-4.543-10.148-10.147-10.148
				c-5.605,0-10.148,4.542-10.148,10.148c0,5.604,4.543,10.147,10.148,10.147c2.546,0,4.867-0.944,6.649-2.494l7.882,7.931
				c0.317,0.317,0.831,0.317,1.148,0C28.069,27.497,28.069,26.982,27.752,26.665z M12.073,20.766c-4.715,0-8.539-3.822-8.539-8.537
				c0-4.716,3.823-8.538,8.539-8.538c4.715,0,8.538,3.822,8.538,8.538C20.611,16.944,16.788,20.766,12.073,20.766z"/>
			<path fill="#1B6555" d="M27.178,29.973c-0.731,0-1.417-0.285-1.934-0.802l-6.713-6.755c-1.924,1.223-4.162,1.882-6.458,1.882
				c-6.656,0-12.07-5.414-12.07-12.069c0-6.656,5.415-12.07,12.07-12.07c6.655,0,12.069,5.415,12.069,12.07
				c0,2.228-0.621,4.409-1.773,6.293l6.746,6.788c0.512,0.512,0.797,1.199,0.797,1.93c0,0.731-0.285,1.417-0.803,1.934
				C28.595,29.688,27.909,29.973,27.178,29.973z M12.073,5.614c-3.648,0-6.616,2.967-6.616,6.615c0,3.647,2.968,6.615,6.616,6.615
				c3.647,0,6.615-2.968,6.615-6.615C18.688,8.581,15.721,5.614,12.073,5.614z"/>
		</g>
	</g>
</g>
</svg>
