<?xml version="1.0" encoding="utf-8"?>
<!-- Generator: Adobe Illustrator 16.0.0, SVG Export Plug-In . SVG Version: 6.00 Build 0)  -->
<!DOCTYPE svg PUBLIC "-//W3C//DTD SVG 1.1//EN" "http://www.w3.org/Graphics/SVG/1.1/DTD/svg11.dtd">
<svg version="1.1" id="Layer_1" xmlns="http://www.w3.org/2000/svg" xmlns:xlink="http://www.w3.org/1999/xlink" x="0px" y="0px"
	 width="30px" height="30px" viewBox="0 0 30 30" enable-background="new 0 0 30 30" xml:space="preserve">
<g id="Magnifier_8_">
	<g>
		<g>
			<path fill="#FFFFFF" d="M27.639,26.562l-7.819-7.867c1.458-1.745,2.336-3.99,2.336-6.44c0-5.556-4.502-10.058-10.057-10.058
				c-5.555,0-10.058,4.502-10.058,10.058c0,5.554,4.503,10.057,10.058,10.057c2.523,0,4.824-0.937,6.589-2.473l7.812,7.86
				c0.313,0.315,0.823,0.315,1.138,0C27.953,27.386,27.953,26.876,27.639,26.562z M12.099,20.716c-4.673,0-8.463-3.789-8.463-8.461
				c0-4.674,3.79-8.461,8.463-8.461c4.672,0,8.461,3.788,8.461,8.461C20.56,16.927,16.771,20.716,12.099,20.716z"/>
			<path fill="#FFFFFF" d="M27.069,30.195c-0.82,0-1.59-0.32-2.168-0.9l-6.455-6.494c-1.907,1.151-4.1,1.77-6.347,1.77
				c-6.792,0-12.318-5.525-12.318-12.317c0-6.792,5.526-12.318,12.318-12.318c6.791,0,12.316,5.526,12.316,12.318
				c0,2.18-0.583,4.314-1.666,6.182l6.492,6.532c0.574,0.574,0.893,1.345,0.893,2.165c0,0.819-0.32,1.588-0.9,2.166
				C28.657,29.876,27.888,30.195,27.069,30.195z M12.099,6.053c-3.42,0-6.203,2.782-6.203,6.202s2.782,6.201,6.203,6.201
				c3.419,0,6.201-2.782,6.201-6.201S15.519,6.053,12.099,6.053z"/>
		</g>
	</g>
	<g>
		<g>
			<path fill="#FFFFFF" d="M27.639,26.562l-7.819-7.867c1.458-1.745,2.336-3.99,2.336-6.44c0-5.556-4.502-10.058-10.057-10.058
				c-5.555,0-10.058,4.502-10.058,10.058c0,5.554,4.503,10.057,10.058,10.057c2.523,0,4.824-0.937,6.589-2.473l7.812,7.86
				c0.313,0.315,0.823,0.315,1.138,0C27.953,27.386,27.953,26.876,27.639,26.562z M12.099,20.716c-4.673,0-8.463-3.789-8.463-8.461
				c0-4.674,3.79-8.461,8.463-8.461c4.672,0,8.461,3.788,8.461,8.461C20.56,16.927,16.771,20.716,12.099,20.716z"/>
			<path fill="#FFFFFF" d="M27.069,30.195c-0.82,0-1.59-0.32-2.168-0.9l-6.455-6.494c-1.907,1.151-4.1,1.77-6.347,1.77
				c-6.792,0-12.318-5.525-12.318-12.317c0-6.792,5.526-12.318,12.318-12.318c6.791,0,12.316,5.526,12.316,12.318
				c0,2.18-0.583,4.314-1.666,6.182l6.492,6.532c0.574,0.574,0.893,1.345,0.893,2.165c0,0.819-0.32,1.588-0.9,2.166
				C28.657,29.876,27.888,30.195,27.069,30.195z M12.099,6.053c-3.42,0-6.203,2.782-6.203,6.202s2.782,6.201,6.203,6.201
				c3.419,0,6.201-2.782,6.201-6.201S15.519,6.053,12.099,6.053z"/>
		</g>
	</g>
</g>
</svg>
