<?xml version="1.0" encoding="utf-8"?>
<!-- Generator: Adobe Illustrator 16.0.0, SVG Export Plug-In . SVG Version: 6.00 Build 0)  -->
<!DOCTYPE svg PUBLIC "-//W3C//DTD SVG 1.1//EN" "http://www.w3.org/Graphics/SVG/1.1/DTD/svg11.dtd">
<svg version="1.1" id="Layer_1" xmlns="http://www.w3.org/2000/svg" xmlns:xlink="http://www.w3.org/1999/xlink" x="0px" y="0px"
	 width="30px" height="30px" viewBox="0 0 30 30" enable-background="new 0 0 30 30" xml:space="preserve">
<g>
	<path fill="#1B6555" d="M29.077,12.312c-2.635-3.511-7.883-8.758-11.392-11.391C16.891,0.326,15.945,0.028,15,0.028
		s-1.891,0.297-2.685,0.893c-3.51,2.633-8.757,7.88-11.393,11.391c-0.596,0.794-0.895,1.741-0.895,2.688
		c0,0.946,0.299,1.893,0.895,2.688c2.636,3.51,7.883,8.757,11.393,11.391c0.793,0.596,1.739,0.894,2.685,0.894
		s1.891-0.298,2.685-0.894c3.509-2.633,8.757-7.88,11.392-11.391c0.597-0.795,0.895-1.742,0.896-2.688
		C29.972,14.054,29.673,13.107,29.077,12.312z M14.756,22.439c0,0.187-0.075,0.367-0.207,0.5l-1.296,1.296
		c-0.063,0.063-0.172,0.007-0.156-0.082l0.386-2.213c0.014-0.078-0.041-0.151-0.12-0.16c-1.192-0.135-2.479-0.468-3.595-1.074
		c-0.148-0.081-0.212-0.26-0.156-0.42l0.957-2.739c0.052-0.148,0.221-0.217,0.364-0.153c1.12,0.499,2.343,0.789,3.481,0.789
		c0.015,0,0.03,0,0.044,0c0.161-0.001,0.297,0.123,0.297,0.283V22.439z M16.607,21.639c-0.081,0.019-0.134,0.095-0.12,0.176
		l0.415,2.338c0.016,0.088-0.093,0.145-0.156,0.082l-1.295-1.296c-0.133-0.132-0.208-0.313-0.208-0.5v-4.029
		c0-0.17,0.123-0.312,0.285-0.362c0.459-0.141,0.71-0.394,0.71-0.758c0-0.773-1.11-0.733-2.995-1.388
		c-2.221-0.774-3.531-1.746-3.531-3.968c0-2.975,2.341-4.443,5.475-4.443c1.887,0,3.673,0.542,4.669,1.25
		c0.137,0.099,0.168,0.287,0.085,0.434l-1.377,2.426c-0.077,0.135-0.253,0.174-0.384,0.089c-0.843-0.534-1.993-0.846-2.914-0.846
		c-0.893,0-1.408,0.297-1.408,0.872c0,0.834,1.111,0.853,3.035,1.468c2.281,0.734,3.59,1.607,3.59,3.907
		C20.484,19.606,18.898,21.112,16.607,21.639z"/>
</g>
</svg>
