<?xml version="1.0" encoding="utf-8"?>
<!-- Generator: Adobe Illustrator 16.0.0, SVG Export Plug-In . SVG Version: 6.00 Build 0)  -->
<!DOCTYPE svg PUBLIC "-//W3C//DTD SVG 1.1//EN" "http://www.w3.org/Graphics/SVG/1.1/DTD/svg11.dtd">
<svg version="1.1" id="Layer_1" xmlns="http://www.w3.org/2000/svg" xmlns:xlink="http://www.w3.org/1999/xlink" x="0px" y="0px"
	 width="30px" height="30px" viewBox="0 0 30 30" enable-background="new 0 0 30 30" xml:space="preserve">
<g>
	<path fill="#FFFFFF" d="M29.181,12.292C26.527,8.756,21.24,3.47,17.705,0.817c-0.8-0.601-1.752-0.9-2.705-0.9
		c-0.952,0-1.905,0.299-2.705,0.9C8.76,3.47,3.474,8.756,0.818,12.292c-0.601,0.8-0.901,1.754-0.902,2.708
		c0,0.953,0.301,1.907,0.902,2.708c2.655,3.536,7.941,8.822,11.477,11.475c0.799,0.601,1.752,0.9,2.705,0.9
		c0.953,0,1.905-0.3,2.705-0.9c3.535-2.653,8.822-7.938,11.476-11.475c0.601-0.801,0.902-1.755,0.902-2.708
		C30.083,14.046,29.782,13.093,29.181,12.292z M14.754,22.495c0,0.188-0.076,0.37-0.208,0.503l-1.305,1.306
		c-0.064,0.064-0.173,0.007-0.158-0.083l0.389-2.229c0.014-0.078-0.042-0.152-0.121-0.161c-1.201-0.136-2.497-0.472-3.621-1.082
		c-0.15-0.081-0.213-0.262-0.157-0.423l0.964-2.759c0.052-0.149,0.222-0.218,0.366-0.153c1.128,0.502,2.361,0.794,3.507,0.794
		c0.015,0,0.03,0,0.045,0c0.162-0.002,0.299,0.123,0.299,0.285V22.495z M16.619,21.688c-0.081,0.019-0.134,0.096-0.12,0.177
		l0.418,2.355c0.016,0.089-0.093,0.146-0.158,0.083l-1.305-1.306c-0.133-0.133-0.209-0.315-0.209-0.503v-4.059
		c0-0.171,0.124-0.315,0.287-0.365c0.462-0.142,0.716-0.396,0.716-0.763c0-0.779-1.118-0.739-3.017-1.398
		c-2.238-0.78-3.557-1.759-3.557-3.997c0-2.997,2.358-4.476,5.516-4.476c1.901,0,3.701,0.546,4.704,1.259
		c0.139,0.099,0.17,0.289,0.086,0.437l-1.388,2.444c-0.077,0.137-0.255,0.175-0.387,0.09c-0.849-0.538-2.008-0.853-2.935-0.853
		c-0.899,0-1.419,0.3-1.419,0.879c0,0.84,1.119,0.859,3.057,1.479c2.298,0.739,3.617,1.619,3.617,3.936
		C20.525,19.641,18.927,21.158,16.619,21.688z"/>
</g>
</svg>
