<?xml version="1.0" encoding="utf-8"?>
<!-- Generator: Adobe Illustrator 16.0.0, SVG Export Plug-In . SVG Version: 6.00 Build 0)  -->
<!DOCTYPE svg PUBLIC "-//W3C//DTD SVG 1.1//EN" "http://www.w3.org/Graphics/SVG/1.1/DTD/svg11.dtd">
<svg version="1.1" id="Layer_1" xmlns="http://www.w3.org/2000/svg" xmlns:xlink="http://www.w3.org/1999/xlink" x="0px" y="0px"
	 width="30px" height="30px" viewBox="0 0 30 30" enable-background="new 0 0 30 30" xml:space="preserve">
<g id="Bar_chart">
	<g>
		<path fill="#FFFFFF" d="M7.744,9.375H0.968C0.433,9.375,0,9.794,0,10.312v18.75C0,29.581,0.433,30,0.968,30h6.776
			c0.535,0,0.968-0.419,0.968-0.938v-18.75C8.712,9.794,8.279,9.375,7.744,9.375z M18.379,14.948h-6.776
			c-0.534,0-0.968,0.42-0.968,0.938v13.176c0,0.518,0.434,0.938,0.968,0.938h6.776c0.536,0,0.968-0.419,0.968-0.938V15.887
			C19.348,15.369,18.915,14.948,18.379,14.948z M29.031,0h-6.765c-0.535,0-0.968,0.419-0.968,0.938v28.125
			c0,0.518,0.433,0.938,0.968,0.938h6.765C29.567,30,30,29.581,30,29.062V0.938C30,0.419,29.567,0,29.031,0z"/>
	</g>
</g>
</svg>
